<?xml version="1.0" standalone="no"?>
<!DOCTYPE svg PUBLIC "-//W3C//DTD SVG 20010904//EN"
 "http://www.w3.org/TR/2001/REC-SVG-20010904/DTD/svg10.dtd">
<svg version="1.0" xmlns="http://www.w3.org/2000/svg"
 width="333.000000pt" height="333.000000pt" viewBox="0 0 333.000000 333.000000"
 preserveAspectRatio="xMidYMid meet">
<metadata>
Created by potrace 1.11, written by Peter Selinger 2001-2013
</metadata>
<g transform="translate(0.000000,333.000000) scale(0.100000,-0.100000)"
fill="#000000" stroke="none">
<path d="M289 2183 c0 -5 -2 -16 -4 -25 -2 -12 3 -18 16 -18 28 0 97 -37 107
-58 10 -20 8 -82 -4 -132 -5 -19 -9 -39 -9 -45 -1 -5 -13 -59 -28 -120 -14
-60 -42 -177 -62 -260 -19 -82 -42 -171 -51 -197 -21 -65 -68 -104 -143 -119
-50 -9 -60 -15 -64 -35 l-4 -24 222 0 223 0 4 24 c4 21 -1 25 -47 40 -74 23
-89 43 -88 119 1 34 8 89 17 122 8 33 17 72 20 88 3 15 7 35 10 45 3 9 7 28
10 42 6 32 10 48 34 150 33 135 64 270 66 286 4 25 20 16 23 -13 2 -16 10 -75
19 -133 8 -58 17 -118 19 -135 2 -16 7 -52 11 -80 3 -27 8 -63 10 -80 1 -16 3
-30 4 -30 1 0 8 -40 14 -95 6 -45 16 -118 22 -150 2 -14 7 -52 10 -85 4 -33 8
-67 9 -75 1 -10 16 -16 44 -18 34 -3 46 1 61 20 11 13 19 26 20 31 0 4 25 45
55 92 30 46 55 88 55 94 0 5 4 11 8 13 4 2 39 55 77 118 38 63 72 117 75 120
3 3 26 39 50 80 25 41 48 77 52 78 5 2 8 7 8 12 0 9 136 230 150 244 12 12 2
-54 -22 -139 -6 -22 -12 -47 -13 -55 -3 -23 -36 -172 -45 -205 -5 -16 -11 -43
-14 -60 -6 -36 -13 -71 -20 -93 -3 -9 -8 -30 -10 -47 -9 -54 -47 -199 -57
-217 -13 -24 -56 -45 -109 -53 -55 -8 -60 -11 -60 -36 0 -18 9 -19 279 -19
l279 0 4 24 c5 22 1 25 -36 32 -92 15 -101 33 -75 150 11 49 22 100 24 114 3
14 14 61 25 105 11 44 22 94 25 110 3 17 23 107 46 200 22 94 41 176 41 182 2
26 46 53 104 65 32 6 62 16 66 22 23 34 12 36 -239 36 -135 0 -244 -3 -240 -6
6 -6 -46 -107 -98 -189 -17 -27 -34 -57 -38 -65 -4 -8 -20 -34 -35 -57 -56
-87 -177 -288 -180 -300 -2 -7 -7 -13 -11 -13 -4 0 -14 -12 -21 -27 l-13 -28
-7 26 c-4 14 -10 50 -14 80 -3 30 -8 68 -11 84 -11 65 -15 92 -20 145 -4 30
-8 61 -11 68 -2 8 -7 37 -10 65 -4 29 -12 88 -18 132 l-11 80 -238 3 c-130 1
-237 -1 -238 -5z"/>
<path d="M1840 2181 c0 -5 -3 -16 -6 -24 -4 -11 5 -17 37 -22 64 -11 98 -51
94 -112 -2 -27 -10 -75 -18 -108 -9 -33 -18 -71 -21 -85 -2 -14 -9 -45 -15
-70 -17 -65 -27 -111 -36 -158 -2 -13 -7 -32 -10 -42 -6 -19 -13 -47 -21 -90
-10 -53 -37 -136 -55 -171 -26 -52 -62 -77 -129 -90 -49 -9 -59 -15 -63 -35
l-4 -24 222 0 223 0 4 24 c4 21 -1 25 -47 40 -71 22 -89 44 -88 109 0 28 3 66
6 82 3 17 9 44 12 60 3 17 11 48 17 70 6 22 13 47 14 55 3 17 17 83 19 90 4
16 16 68 19 85 2 11 9 38 14 60 6 22 13 51 16 65 2 14 11 52 19 85 8 33 18 72
21 88 7 30 21 37 22 10 1 -21 12 -109 18 -141 3 -13 8 -51 11 -85 4 -34 8 -64
10 -67 2 -3 7 -35 10 -70 4 -36 8 -67 10 -70 3 -4 9 -49 20 -155 2 -16 7 -48
10 -70 3 -22 8 -51 10 -65 6 -47 16 -115 20 -135 2 -11 4 -26 4 -32 1 -9 17
-13 45 -13 43 0 46 2 76 53 17 28 36 61 43 71 7 11 36 57 65 103 28 45 52 85
52 88 0 3 5 11 10 18 6 7 40 59 75 117 35 58 69 110 75 117 5 7 10 14 10 16 0
7 188 309 200 321 13 13 13 -8 -1 -58 -11 -40 -17 -64 -25 -106 -3 -14 -7 -33
-10 -42 -3 -10 -7 -30 -10 -45 -3 -16 -7 -36 -10 -45 -3 -9 -6 -25 -8 -35 -2
-10 -18 -79 -35 -154 -40 -171 -41 -178 -48 -214 -21 -118 -55 -159 -142 -169
-24 -3 -48 -11 -53 -18 -23 -37 -15 -38 271 -38 l279 0 4 24 c4 22 1 25 -38
31 -55 8 -94 38 -89 68 2 12 6 39 9 61 4 21 8 42 11 46 3 4 7 25 11 46 3 22
10 47 15 57 5 9 8 17 5 17 -2 0 0 17 5 38 7 30 22 97 54 241 2 9 13 57 25 106
11 50 23 104 26 120 3 17 10 37 15 46 4 9 6 18 4 21 -14 14 48 50 103 59 34 6
62 15 62 19 0 5 3 15 6 24 6 14 -19 16 -235 16 l-242 0 -18 -42 c-10 -24 -68
-124 -128 -223 -60 -99 -116 -191 -124 -204 -8 -14 -18 -30 -22 -35 -4 -6 -30
-47 -57 -91 -27 -44 -52 -79 -56 -78 -4 2 -8 17 -9 35 -2 18 -6 51 -9 73 -4
22 -11 69 -16 105 -5 36 -12 81 -15 100 -3 19 -8 55 -11 80 -3 25 -9 68 -14
95 -5 28 -12 70 -15 95 -11 95 18 85 -248 88 -143 1 -237 -1 -237 -7z"/>
</g>
</svg>
